<mxfile host="app.diagrams.net" modified="2023-05-07T14:44:34.152Z" agent="Mozilla/5.0 (Windows NT 10.0; Win64; x64; rv:109.0) Gecko/20100101 Firefox/112.0" version="21.2.9" etag="G4wAUZvmiGKHG6FxRGBT" type="github">
  <diagram name="Page-1" id="uLdxUvJaq-xoDmpP-lNJ">
    <mxGraphModel>
      <root>
        <mxCell id="0" />
        <mxCell id="1" parent="0" />
      </root>
    </mxGraphModel>
  </diagram>
</mxfile>
